<?xml version="1.0" standalone="no"?>
<!DOCTYPE svg PUBLIC "-//W3C//DTD SVG 20010904//EN"
 "http://www.w3.org/TR/2001/REC-SVG-20010904/DTD/svg10.dtd">
<svg version="1.0" xmlns="http://www.w3.org/2000/svg"
 width="1654.000000pt" height="1359.000000pt" viewBox="0 0 1654.000000 1359.000000"
 preserveAspectRatio="xMidYMid meet">

<g transform="translate(0.000000,1359.000000) scale(0.100000,-0.100000)"
fill="#000000" stroke="none">
<path d="M7062 9138 c-454 -805 -896 -1585 -1223 -2153 -72 -126 -169 -295
-214 -375 -159 -283 -419 -734 -676 -1175 -210 -362 -229 -395 -229 -406 0 -5
237 -9 569 -9 l568 0 165 298 c91 163 234 423 318 577 197 360 190 347 310
570 56 105 109 196 118 203 12 9 135 12 537 12 l521 0 35 43 c37 44 456 568
690 862 75 94 193 244 264 335 310 398 452 579 614 785 95 121 189 241 209
267 l37 47 383 1 c382 0 383 0 372 -20 -6 -12 -73 -98 -148 -193 -76 -95 -191
-242 -257 -327 -66 -85 -277 -357 -469 -605 -193 -247 -409 -526 -481 -620
-72 -93 -178 -231 -236 -305 -293 -375 -754 -966 -784 -1005 l-34 -45 222
-440 222 -440 1117 0 c615 0 1118 3 1118 6 0 10 -225 338 -460 669 -435 614
-748 1061 -919 1308 l-101 148 167 217 c92 119 268 348 392 507 123 160 268
346 321 415 332 430 459 593 573 735 l128 160 -603 3 c-580 2 -604 2 -618 -16
-76 -96 -357 -452 -585 -742 -351 -447 -645 -814 -655 -818 -10 -4 -52 74
-309 575 l-211 412 19 33 c73 128 291 526 296 541 7 16 -22 17 -518 17 l-526
0 -29 -52z m788 -125 c0 -7 -30 -61 -185 -338 -228 -406 -590 -1064 -871
-1585 l-159 -295 -800 -797 c-440 -438 -802 -795 -803 -793 -2 2 106 196 241
432 135 235 337 590 449 788 113 198 274 482 360 630 85 149 195 342 245 430
90 160 474 842 688 1220 62 110 123 220 135 245 12 25 27 51 32 58 8 9 88 12
339 12 181 0 329 -3 329 -7z m-81 -696 c21 -46 117 -236 214 -423 96 -186 187
-365 201 -397 l25 -57 -92 -118 c-166 -213 -320 -393 -327 -385 -9 9 -303 576
-377 726 l-48 98 39 72 c136 254 312 567 318 567 5 0 26 -38 47 -83z m-321
-1107 l183 -360 -382 0 c-359 0 -381 1 -375 18 11 30 380 702 386 702 3 0 87
-162 188 -360z m1836 -470 c82 -118 195 -278 250 -355 55 -77 155 -219 222
-315 244 -349 341 -486 476 -674 75 -105 135 -192 133 -194 -2 -2 -36 24 -77
57 -40 33 -404 324 -808 646 -404 322 -739 592 -744 599 -6 9 48 86 180 255
185 237 189 242 204 220 8 -13 82 -120 164 -239z m-2765 -137 c-34 -65 -106
-197 -159 -293 -53 -96 -121 -220 -150 -275 -50 -94 -183 -334 -302 -545 -29
-52 -59 -107 -67 -122 -8 -16 -16 -26 -18 -24 -4 4 23 56 140 271 39 71 51
104 44 113 -5 7 -7 15 -3 19 3 3 6 1 6 -5 0 -7 5 -12 10 -12 6 0 10 7 10 15 0
8 -5 15 -11 15 -5 0 -7 5 -3 12 6 9 9 9 12 0 5 -17 22 -15 22 3 0 8 -6 15 -12
16 -10 0 -10 2 -1 5 7 3 10 11 8 17 -3 7 4 23 14 36 13 17 18 19 18 7 0 -9 -4
-16 -9 -16 -5 0 -6 -4 -3 -10 3 -5 2 -10 -3 -10 -5 0 -9 -7 -9 -16 0 -14 2
-14 14 2 8 11 16 29 20 42 3 12 9 22 14 22 5 0 9 5 9 11 0 6 -6 9 -14 6 -10
-4 -14 0 -13 13 1 15 4 16 14 8 10 -8 17 -6 27 8 8 10 12 21 9 24 -3 3 -8 -1
-10 -8 -3 -6 -9 -9 -14 -6 -6 3 -4 16 6 30 8 13 13 24 9 24 -4 0 -1 7 6 15 7
8 18 15 24 15 7 0 6 -4 -2 -9 -11 -7 -11 -9 1 -14 20 -7 32 23 15 36 -10 7 -9
8 2 4 10 -3 25 15 48 59 22 43 27 62 17 58 -8 -4 -16 -10 -16 -15 -1 -5 -2
-13 -3 -18 0 -5 -4 -13 -9 -17 -4 -4 -5 8 -3 27 2 19 9 33 15 31 6 -1 11 3 11
9 0 5 4 8 9 5 11 -7 36 22 27 31 -3 3 -6 1 -6 -5 0 -7 -6 -12 -12 -12 -7 0 2
13 20 29 37 35 41 52 10 43 -12 -3 -17 -7 -10 -10 14 -4 17 -22 4 -22 -16 0
-31 47 -19 59 8 8 8 11 -2 11 -7 0 -9 5 -6 10 11 18 27 11 22 -10 -7 -27 6
-33 21 -10 9 14 8 19 -3 24 -8 3 -15 13 -15 21 0 15 1 15 16 1 17 -18 28 -21
19 -6 -3 6 -1 10 4 10 6 0 11 5 11 11 0 5 -4 7 -10 4 -5 -3 -10 -1 -10 4 0 6
-7 11 -17 11 -9 0 -13 3 -10 7 4 3 2 12 -4 20 -6 7 -7 13 -3 13 5 0 15 -10 22
-21 10 -16 16 -19 25 -10 9 9 8 14 -3 21 -13 8 -12 10 3 10 9 0 17 -4 17 -10
0 -5 6 -7 14 -4 15 6 16 28 1 41 -4 4 -5 2 0 -6 5 -10 4 -12 -4 -7 -20 13 -1
26 31 21 28 -5 30 -4 18 10 -9 11 -15 13 -20 4 -5 -8 -9 -8 -14 0 -4 6 4 13
18 17 16 4 23 11 19 20 -3 8 3 17 12 20 13 5 14 9 4 15 -20 12 6 37 35 34 14
-2 27 3 30 12 5 11 1 13 -16 7 -17 -5 -12 3 19 37 23 24 53 59 68 77 15 17 29
32 32 32 2 0 -24 -53 -58 -117z m-139 -113 c0 -5 -2 -10 -4 -10 -2 0 -12 -3
-22 -7 -16 -6 -17 -5 -4 10 17 19 30 22 30 7z m-40 -39 c0 -5 -9 -11 -21 -14
-16 -4 -18 -3 -8 9 13 16 29 19 29 5z m-87 -84 c3 -7 -3 -13 -14 -14 -15 -1
-16 1 -6 12 15 18 14 18 20 2z m2463 -179 c146 -243 409 -674 509 -833 48 -77
89 -144 91 -150 3 -7 -118 -9 -373 -7 l-378 3 -165 335 c-91 185 -165 340
-165 345 0 17 357 469 371 469 7 0 57 -73 110 -162z m-2461 142 c3 -5 1 -10
-4 -10 -6 0 -11 5 -11 10 0 6 2 10 4 10 3 0 8 -4 11 -10z m-60 -271 c-4 -5
-13 -9 -21 -9 -12 0 -12 2 -2 14 14 15 32 11 23 -5z m-405 -788 c-16 -33 -35
-63 -42 -67 -8 -5 -7 1 3 16 9 14 26 44 38 68 12 23 24 42 26 42 3 0 -8 -27
-25 -59z"/>
<path d="M6336 6348 c3 -5 10 -6 15 -3 13 9 11 12 -6 12 -8 0 -12 -4 -9 -9z"/>
<path d="M6298 6273 c7 -3 16 -2 19 1 4 3 -2 6 -13 5 -11 0 -14 -3 -6 -6z"/>
<path d="M6136 5964 c-4 -10 -1 -14 6 -12 15 5 23 28 10 28 -5 0 -13 -7 -16
-16z"/>
<path d="M6842 6517 l-52 -52 132 -132 133 -133 -129 -129 c-100 -100 -127
-133 -122 -148 3 -10 26 -38 50 -62 l44 -43 70 66 c39 37 123 123 188 192
l117 125 -174 175 c-96 97 -181 179 -190 184 -11 7 -28 -4 -67 -43z"/>
<path d="M7267 5913 c3 -38 8 -71 12 -74 3 -3 138 -4 299 -1 l292 4 0 69 0 69
-304 0 -304 0 5 -67z"/>
</g>
</svg>
